<svg xmlns="http://www.w3.org/2000/svg" viewBox="0 0 500 500"><g id="freepik--background-complete--inject-3"><g><g><rect x="407.46" y="200.53" width="47.5" height="89.55" style="fill:#e0e0e0;"></rect><rect x="396.83" y="200.53" width="55.8" height="89.55" style="fill:#ebebeb;"></rect><rect x="405.31" y="208.49" width="38.81" height="73.64" style="fill:#fff;"></rect></g><path d="M396.83,200.53c.69,0,8.48,7.95,8.48,7.95h38.81l8.51-7.95h-55.8Z" style="fill:#e0e0e0;"></path><path d="M452.63,290.08c-.69,0-8.48-7.95-8.48-7.95h-38.81l-8.51,7.95h55.8Z" style="fill:#e0e0e0;"></path><rect x="418.58" y="227.67" width="13.81" height="21.83" style="fill:#e0e0e0;"></rect></g><g><g><g><path d="M443.92,316.25h-180.75c-3.23,0-5.86-2.63-5.86-5.86V47.11c0-3.23,2.63-5.86,5.86-5.86h180.75c3.23,0,5.86,2.63,5.86,5.86V310.38c0,3.23-2.63,5.86-5.86,5.86ZM263.17,41.5c-3.09,0-5.61,2.52-5.61,5.61V310.38c0,3.09,2.52,5.61,5.61,5.61h180.75c3.09,0,5.61-2.52,5.61-5.61V47.11c0-3.09-2.52-5.61-5.61-5.61h-180.75Z" style="fill:#e0e0e0;"></path><path d="M235.49,316.25H54.75c-3.23,0-5.86-2.63-5.86-5.86V47.11c0-3.23,2.63-5.86,5.86-5.86H235.49c3.23,0,5.86,2.63,5.86,5.86V310.38c0,3.23-2.63,5.86-5.86,5.86ZM54.75,41.5c-3.09,0-5.61,2.52-5.61,5.61V310.38c0,3.09,2.52,5.61,5.61,5.61H235.49c3.09,0,5.61-2.52,5.61-5.61V47.11c0-3.09-2.52-5.61-5.61-5.61H54.75Z" style="fill:#e0e0e0;"></path></g><rect x="0" y="377.31" width="500" height=".25" style="fill:#e0e0e0;"></rect></g><rect x="51.67" y="391.58" width="16.06" height=".25" style="fill:#e0e0e0;"></rect><rect x="170.35" y="388.87" width="53.53" height=".25" style="fill:#e0e0e0;"></rect><rect x="68.73" y="400.87" width="36.25" height=".25" style="fill:#e0e0e0;"></rect><rect x="378.35" y="388.74" width="43.19" height=".25" style="fill:#e0e0e0;"></rect><rect x="430.45" y="388.74" width="6.33" height=".25" style="fill:#e0e0e0;"></rect><rect x="316.21" y="394.97" width="53.89" height=".25" style="fill:#e0e0e0;"></rect></g><g><rect x="33.66" y="97.13" width="34.73" height="11.53" style="fill:#e6e6e6;"></rect><rect x="51.02" y="108.65" width="34.73" height="11.53" style="fill:#f5f5f5;"></rect></g><g><rect x="376.84" y="133.44" width="34.73" height="11.53" style="fill:#e6e6e6;"></rect><rect x="394.21" y="144.97" width="34.73" height="11.53" style="fill:#f5f5f5;"></rect></g><g><rect x="34.9" y="346.55" width="34.73" height="11.53" style="fill:#e6e6e6;"></rect><rect x="52.27" y="358.08" width="34.73" height="11.53" style="fill:#f5f5f5;"></rect></g><rect x="145.12" y="35.74" width="34.73" height="11.53" style="fill:#f5f5f5;"></rect><rect x="33.66" y="206.76" width="34.73" height="11.53" style="fill:#f5f5f5;"></rect><g><rect x="431.13" y="331.89" width="34.73" height="11.53" style="fill:#f5f5f5;"></rect><rect x="444.66" y="343.42" width="34.73" height="11.53" style="fill:#ebebeb;"></rect></g><g><rect x="309.94" y="29.47" width="34.73" height="11.53" style="fill:#f5f5f5;"></rect><rect x="323.47" y="41" width="34.73" height="11.53" style="fill:#ebebeb;"></rect></g></g><g id="freepik--Shadow--inject-3"><path d="M458.88,439.76c0,3.39-93.52,6.13-208.88,6.13s-208.88-2.75-208.88-6.13,93.52-6.13,208.88-6.13,208.88,2.75,208.88,6.13Z" style="fill:#f5f5f5;"></path></g><g id="freepik--Picture--inject-3"><g><g><rect x="406.68" y="96.11" width="47.4" height="89.36" style="fill:#EA3140;"></rect><rect x="406.68" y="96.11" width="47.4" height="89.36" style="opacity:.3;"></rect><rect x="396.08" y="96.11" width="55.68" height="89.36" style="fill:#EA3140;"></rect><rect x="404.54" y="104.05" width="38.73" height="73.49" style="fill:#fff;"></rect></g><path d="M396.08,96.11c.69,0,8.46,7.94,8.46,7.94h38.73l8.49-7.94h-55.68Z" style="opacity:.3;"></path><path d="M451.76,185.47c-.69,0-8.46-7.94-8.46-7.94h-38.73l-8.49,7.94h55.68Z" style="opacity:.3;"></path><rect x="417.78" y="123.18" width="13.78" height="21.78" style="fill:#EA3140;"></rect></g></g><g id="freepik--Notebook--inject-3"><g><rect x="119.3" y="71.46" width="239.13" height="365.69" style="fill:#EA3140;"></rect><rect x="119.3" y="71.46" width="239.13" height="365.69" style="fill:#fff; opacity:.8;"></rect><path d="M142.23,80.39c0,1.17-.94,2.12-2.11,2.12s-2.11-.95-2.11-2.12,.94-2.12,2.11-2.12,2.11,.95,2.11,2.12Z" style="opacity:.5;"></path><path d="M164.28,80.39c0,1.17-.94,2.12-2.11,2.12s-2.11-.95-2.11-2.12,.94-2.12,2.11-2.12,2.11,.95,2.11,2.12Z" style="opacity:.5;"></path><path d="M186.33,80.39c0,1.17-.94,2.12-2.11,2.12s-2.11-.95-2.11-2.12,.94-2.12,2.11-2.12,2.11,.95,2.11,2.12Z" style="opacity:.5;"></path><path d="M208.39,80.39c0,1.17-.94,2.12-2.11,2.12s-2.11-.95-2.11-2.12,.94-2.12,2.11-2.12,2.11,.95,2.11,2.12Z" style="opacity:.5;"></path><path d="M230.44,80.39c0,1.17-.94,2.12-2.11,2.12s-2.11-.95-2.11-2.12,.94-2.12,2.11-2.12,2.11,.95,2.11,2.12Z" style="opacity:.5;"></path><path d="M252.49,80.39c0,1.17-.94,2.12-2.11,2.12s-2.11-.95-2.11-2.12,.94-2.12,2.11-2.12,2.11,.95,2.11,2.12Z" style="opacity:.5;"></path><path d="M274.55,80.39c0,1.17-.94,2.12-2.11,2.12s-2.11-.95-2.11-2.12,.94-2.12,2.11-2.12,2.11,.95,2.11,2.12Z" style="opacity:.5;"></path><path d="M296.6,80.39c0,1.17-.94,2.12-2.11,2.12s-2.11-.95-2.11-2.12,.94-2.12,2.11-2.12,2.11,.95,2.11,2.12Z" style="opacity:.5;"></path><path d="M318.65,80.39c0,1.17-.94,2.12-2.11,2.12s-2.11-.95-2.11-2.12,.94-2.12,2.11-2.12,2.11,.95,2.11,2.12Z" style="opacity:.5;"></path><path d="M340.71,80.39c0,1.17-.94,2.12-2.11,2.12s-2.11-.95-2.11-2.12,.94-2.12,2.11-2.12,2.11,.95,2.11,2.12Z" style="opacity:.5;"></path><path d="M140.3,81.39c-5.58,0-10.13-4.56-10.13-10.17s4.54-10.17,10.13-10.17,10.13,4.56,10.13,10.17h-2c0-4.5-3.65-8.17-8.13-8.17s-8.13,3.66-8.13,8.17,3.65,8.17,8.13,8.17v2Z" style="fill:#263238;"></path><path d="M162.52,81.39c-5.58,0-10.13-4.56-10.13-10.17s4.54-10.17,10.13-10.17,10.13,4.56,10.13,10.17h-2c0-4.5-3.65-8.17-8.13-8.17s-8.13,3.66-8.13,8.17,3.65,8.17,8.13,8.17v2Z" style="fill:#263238;"></path><path d="M184.73,81.39c-5.58,0-10.13-4.56-10.13-10.17s4.54-10.17,10.13-10.17,10.13,4.56,10.13,10.17h-2c0-4.5-3.65-8.17-8.13-8.17s-8.13,3.66-8.13,8.17,3.65,8.17,8.13,8.17v2Z" style="fill:#263238;"></path><path d="M206.95,81.39c-5.58,0-10.13-4.56-10.13-10.17s4.54-10.17,10.13-10.17,10.13,4.56,10.13,10.17h-2c0-4.5-3.65-8.17-8.13-8.17s-8.13,3.66-8.13,8.17,3.65,8.17,8.13,8.17v2Z" style="fill:#263238;"></path><path d="M229.16,81.39c-5.58,0-10.13-4.56-10.13-10.17s4.54-10.17,10.13-10.17,10.13,4.56,10.13,10.17h-2c0-4.5-3.65-8.17-8.13-8.17s-8.13,3.66-8.13,8.17,3.65,8.17,8.13,8.17v2Z" style="fill:#263238;"></path><path d="M251.38,81.39c-5.58,0-10.13-4.56-10.13-10.17s4.54-10.17,10.13-10.17,10.13,4.56,10.13,10.17h-2c0-4.5-3.65-8.17-8.13-8.17s-8.13,3.66-8.13,8.17,3.65,8.17,8.13,8.17v2Z" style="fill:#263238;"></path><path d="M273.59,81.39c-5.58,0-10.13-4.56-10.13-10.17s4.54-10.17,10.13-10.17,10.13,4.56,10.13,10.17h-2c0-4.5-3.65-8.17-8.13-8.17s-8.13,3.66-8.13,8.17,3.65,8.17,8.13,8.17v2Z" style="fill:#263238;"></path><path d="M295.81,81.39c-5.58,0-10.13-4.56-10.13-10.17s4.54-10.17,10.13-10.17,10.13,4.56,10.13,10.17h-2c0-4.5-3.65-8.17-8.13-8.17s-8.13,3.66-8.13,8.17,3.65,8.17,8.13,8.17v2Z" style="fill:#263238;"></path><path d="M318.02,81.39c-5.58,0-10.13-4.56-10.13-10.17s4.54-10.17,10.13-10.17,10.13,4.56,10.13,10.17h-2c0-4.5-3.65-8.17-8.13-8.17s-8.13,3.66-8.13,8.17,3.65,8.17,8.13,8.17v2Z" style="fill:#263238;"></path><path d="M340.24,81.39c-5.58,0-10.13-4.56-10.13-10.17s4.54-10.17,10.13-10.17,10.13,4.56,10.13,10.17h-2c0-4.5-3.65-8.17-8.13-8.17s-8.13,3.66-8.13,8.17,3.65,8.17,8.13,8.17v2Z" style="fill:#263238;"></path><polygon points="378.82 437.15 358.43 437.15 358.43 71.46 368.62 71.46 378.82 437.15" style="fill:#EA3140;"></polygon><g><path d="M326.83,146.01h-127.74c-.55,0-1-.45-1-1s.45-1,1-1h127.74c.55,0,1,.45,1,1s-.45,1-1,1Z" style="fill:#263238;"></path><path d="M326.52,154.04h-127.74c-.55,0-1-.45-1-1s.45-1,1-1h127.74c.55,0,1,.45,1,1s-.45,1-1,1Z" style="fill:#263238;"></path><path d="M260.23,162.2h-61.45c-.55,0-1-.45-1-1s.45-1,1-1h61.45c.55,0,1,.45,1,1s-.45,1-1,1Z" style="fill:#263238;"></path><g><path d="M187.12,162.05h-21.86v-21.95h21.86v21.95Zm-20.86-1h19.86v-19.95h-19.86v19.95Z" style="fill:#263238;"></path><polygon points="178.87 159.39 167.45 150.85 170.42 146.85 178.08 152.58 188.6 139.97 192.4 143.18 178.87 159.39" style="fill:#EA3140;"></polygon></g></g><g><path d="M327.98,187.54h-127.74c-.55,0-1-.45-1-1s.45-1,1-1h127.74c.55,0,1,.45,1,1s-.45,1-1,1Z" style="fill:#263238;"></path><path d="M327.67,195.57h-127.74c-.55,0-1-.45-1-1s.45-1,1-1h127.74c.55,0,1,.45,1,1s-.45,1-1,1Z" style="fill:#263238;"></path><path d="M261.38,203.73h-61.45c-.55,0-1-.45-1-1s.45-1,1-1h61.45c.55,0,1,.45,1,1s-.45,1-1,1Z" style="fill:#263238;"></path><g><path d="M187.12,205.61h-21.86v-21.95h21.86v21.95Zm-20.86-1h19.86v-19.95h-19.86v19.95Z" style="fill:#263238;"></path><polygon points="178.87 202.95 167.45 194.41 170.42 190.41 178.08 196.14 188.6 183.53 192.4 186.74 178.87 202.95" style="fill:#EA3140;"></polygon></g></g><g><path d="M326.98,229.7h-127.74c-.55,0-1-.45-1-1s.45-1,1-1h127.74c.55,0,1,.45,1,1s-.45,1-1,1Z" style="fill:#263238;"></path><path d="M326.67,237.74h-127.74c-.55,0-1-.45-1-1s.45-1,1-1h127.74c.55,0,1,.45,1,1s-.45,1-1,1Z" style="fill:#263238;"></path><path d="M260.38,245.9h-61.45c-.55,0-1-.45-1-1s.45-1,1-1h61.45c.55,0,1,.45,1,1s-.45,1-1,1Z" style="fill:#263238;"></path><g><path d="M187.12,249.17h-21.86v-21.95h21.86v21.95Zm-20.86-1h19.86v-19.95h-19.86v19.95Z" style="fill:#263238;"></path><polygon points="178.87 246.51 167.45 237.97 170.42 233.97 178.08 239.69 188.6 227.09 192.4 230.29 178.87 246.51" style="fill:#EA3140;"></polygon></g></g><g><path d="M326.98,272.95h-127.74c-.55,0-1-.45-1-1s.45-1,1-1h127.74c.55,0,1,.45,1,1s-.45,1-1,1Z" style="fill:#263238;"></path><path d="M326.67,280.99h-127.74c-.55,0-1-.45-1-1s.45-1,1-1h127.74c.55,0,1,.45,1,1s-.45,1-1,1Z" style="fill:#263238;"></path><path d="M260.38,289.14h-61.45c-.55,0-1-.45-1-1s.45-1,1-1h61.45c.55,0,1,.45,1,1s-.45,1-1,1Z" style="fill:#263238;"></path><path d="M187.12,292.41h-21.86v-21.95h21.86v21.95Zm-20.86-1h19.86v-19.95h-19.86v19.95Z" style="fill:#263238;"></path></g><g><path d="M326.98,316.51h-127.74c-.55,0-1-.45-1-1s.45-1,1-1h127.74c.55,0,1,.45,1,1s-.45,1-1,1Z" style="fill:#263238;"></path><path d="M326.67,324.54h-127.74c-.55,0-1-.45-1-1s.45-1,1-1h127.74c.55,0,1,.45,1,1s-.45,1-1,1Z" style="fill:#263238;"></path><path d="M260.38,332.7h-61.45c-.55,0-1-.45-1-1s.45-1,1-1h61.45c.55,0,1,.45,1,1s-.45,1-1,1Z" style="fill:#263238;"></path><path d="M187.12,335.97h-21.86v-21.95h21.86v21.95Zm-20.86-1h19.86v-19.95h-19.86v19.95Z" style="fill:#263238;"></path></g><g><path d="M326.98,360.07h-127.74c-.55,0-1-.45-1-1s.45-1,1-1h127.74c.55,0,1,.45,1,1s-.45,1-1,1Z" style="fill:#263238;"></path><path d="M326.67,368.1h-127.74c-.55,0-1-.45-1-1s.45-1,1-1h127.74c.55,0,1,.45,1,1s-.45,1-1,1Z" style="fill:#263238;"></path><path d="M260.38,376.26h-61.45c-.55,0-1-.45-1-1s.45-1,1-1h61.45c.55,0,1,.45,1,1s-.45,1-1,1Z" style="fill:#263238;"></path><path d="M187.12,379.53h-21.86v-21.95h21.86v21.95Zm-20.86-1h19.86v-19.95h-19.86v19.95Z" style="fill:#263238;"></path></g><rect x="144.93" y="71.46" width="1" height="365.94" style="fill:#EA3140;"></rect><polygon points="378.82 437.15 358.43 437.15 358.43 71.46 368.62 71.46 378.82 437.15" style="fill:#fff; opacity:.6;"></polygon><rect x="119.3" y="109.34" width="239.46" height="1" style="opacity:.1;"></rect><rect x="119.3" y="128.81" width="239.46" height="1" style="opacity:.1;"></rect><rect x="119.3" y="148.27" width="239.46" height="1" style="opacity:.1;"></rect><rect x="119.3" y="167.74" width="239.46" height="1" style="opacity:.1;"></rect><rect x="119.3" y="187.2" width="239.46" height="1" style="opacity:.1;"></rect><rect x="119.3" y="206.67" width="239.46" height="1" style="opacity:.1;"></rect><rect x="119.3" y="226.13" width="239.46" height="1" style="opacity:.1;"></rect><rect x="119.3" y="245.6" width="239.46" height="1" style="opacity:.1;"></rect><rect x="119.3" y="265.06" width="239.46" height="1" style="opacity:.1;"></rect><rect x="119.3" y="284.53" width="239.46" height="1" style="opacity:.1;"></rect><rect x="119.3" y="303.99" width="239.46" height="1" style="opacity:.1;"></rect><rect x="119.3" y="323.45" width="239.46" height="1" style="opacity:.1;"></rect><rect x="119.3" y="342.92" width="239.46" height="1" style="opacity:.1;"></rect><rect x="119.3" y="362.38" width="239.46" height="1" style="opacity:.1;"></rect><rect x="119.3" y="381.85" width="239.46" height="1" style="opacity:.1;"></rect><rect x="119.3" y="401.31" width="239.46" height="1" style="opacity:.1;"></rect><rect x="119.3" y="420.78" width="239.46" height="1" style="opacity:.1;"></rect><rect x="175.34" y="108.03" width="151.18" height="7.12" style="fill:#EA3140;"></rect></g></g><g id="freepik--Plant--inject-3"><g><g><g><path d="M407.87,400.77c-.01-.42-1.46-42.13-8.39-48.72-6.74-6.41-14.48-.24-14.81,.03l-.7-.82c.09-.07,8.82-7.05,16.26,.03,7.24,6.89,8.66,47.72,8.72,49.45l-1.08,.03Z" style="fill:#263238;"></path><path d="M408.47,408.97c-.05-.5-4.74-50.07,13.76-70.85l.82,.7c-18.19,20.43-13.55,69.55-13.5,70.05l-1.08,.1Z" style="fill:#263238;"></path><path d="M407.78,403.72l-1.08-.07c.04-.56,3.62-56.36-9.95-68.57l.73-.78c13.95,12.56,10.45,67.1,10.3,69.42Z" style="fill:#263238;"></path><path d="M409.55,403.69h-1.08c.01-1.55,.45-37.69,10.94-43.58,2.33-1.31,4.62-1.53,6.79-.65,6.34,2.57,9.49,13.62,9.62,14.09l-1.05,.28c-.03-.11-3.14-11.02-8.99-13.39-1.85-.75-3.81-.55-5.83,.59-9.96,5.58-10.39,42.29-10.4,42.66Z" style="fill:#263238;"></path><path d="M405.46,403.72l-1.08-.06c.02-.29,1.58-28.57-6.22-38.53-1.89-2.41-3.94-3.56-6.11-3.42-5.11,.35-9.4,7.67-9.44,7.74l-.94-.52c.19-.32,4.61-7.89,10.31-8.28,2.55-.18,4.92,1.11,7.05,3.83,8.04,10.28,6.51,38.06,6.44,39.24Z" style="fill:#263238;"></path><path d="M407.17,407.56c-.21-2.74-5.1-67.32,3.5-78.7l.87,.63c-8.36,11.06-3.34,77.32-3.29,77.99l-1.08,.08Z" style="fill:#263238;"></path></g><path d="M430.09,363.03s-5.49,1.98-3.62,6.25c5.25,12.03,17.76,13.31,17.76,13.31,0,0,5.87-9.09,1.06-16.16-6.63-9.74-15.05-6.55-15.19-3.41Z" style="fill:#EA3140;"></path><path d="M406.11,357.65s5.49-.23,5.8,4.41c.31,4.63-11.9,17.45-11.9,17.45,0,0-8.71-3.08-6.84-14.64,1.87-11.56,11.57-10.06,12.94-7.21Z" style="fill:#EA3140;"></path><path d="M408.77,330.65s-2.31-.28-3.17-2.31c-2.59-6.06,6.3-12.59,18.19-9.14,0,0,.31,10.24-6.08,14.28-6.4,4.04-8.94-2.83-8.94-2.83Z" style="fill:#EA3140;"></path><path d="M396.81,337.47s-.61,2.89-3.39,3.77c-8.28,2.63-15.97-9.31-10.15-23.99,0,0,13.56,.69,18.21,9.21,4.66,8.52-4.68,11.01-4.68,11.01Z" style="fill:#EA3140;"></path><path d="M388.4,362.4s1.91-2.57-.98-2.82c-2.89-.25-15.41,5.24-12.12,17.8,0,0,16.1-5.14,16.66-10.4,.56-5.26-3.56-4.58-3.56-4.58Z" style="fill:#EA3140;"></path><path d="M422.73,335.15s.72-2.33,3.45-3.31c2.73-.97,12.86-.36,13,12.61,0,0-15.59,2.53-17.52-2.41-1.93-4.94,1.07-6.9,1.07-6.9Z" style="fill:#EA3140;"></path><path d="M414.32,345.93s1.05-1.78,3.05-.83c2,.95,7.91,6.9,2.28,14.07,0,0-10.46-6.15-9.61-10.47,.79-3.98,4.28-2.77,4.28-2.77Z" style="fill:#EA3140;"></path><path d="M388.69,349.06s1.51-1.94-.7-2.18c-2.21-.24-12.13,2.35-9.82,12.04,0,0,12.08-.89,12.6-4.91,.52-4.02-2.08-4.95-2.08-4.95Z" style="fill:#EA3140;"></path><polygon points="425.79 436.83 391.14 436.83 387.4 399.7 429.53 399.7 425.79 436.83" style="fill:#263238;"></polygon><rect x="385.55" y="395.61" width="45.82" height="8.19" style="fill:#263238;"></rect></g><polygon points="387.82 403.8 429.11 403.8 428.74 407.56 388.19 407.56 387.82 403.8" style="opacity:.3;"></polygon></g></g></svg>
