<svg xmlns="http://www.w3.org/2000/svg" viewBox="0 0 750 500"><g id="freepik--background-complete--inject-5"><path d="M628.25,151.93a9.69,9.69,0,1,1-9.69-9.68A9.69,9.69,0,0,1,628.25,151.93Z" style="fill:#ebebeb"></path><path d="M600.12,151.93a10.32,10.32,0,1,1-10.32-10.31A10.32,10.32,0,0,1,600.12,151.93Z" style="fill:#ebebeb"></path><circle cx="567.69" cy="133.68" r="10.95" style="fill:#ebebeb"></circle><circle cx="563.2" cy="105.61" r="11.44" transform="translate(90.28 429.18) rotate(-45)" style="fill:#ebebeb"></circle><circle cx="577.21" cy="81.04" r="11.82" style="fill:#ebebeb"></circle><circle cx="604.14" cy="71.33" r="12.88" style="fill:#ebebeb"></circle><circle cx="639.93" cy="133.45" r="9.36" transform="translate(396.59 740.17) rotate(-79.92)" style="fill:#ebebeb"></circle><path d="M653.62,105.3a8.68,8.68,0,1,1-8.68-8.69A8.68,8.68,0,0,1,653.62,105.3Z" style="fill:#ebebeb"></path><circle cx="630.5" cy="80.72" r="7.93" transform="translate(450.07 690.22) rotate(-80.81)" style="fill:#ebebeb"></circle><path d="M156.27,227.94a27.57,27.57,0,0,1,7.22,1.91l5.31-4.45,9.12,6.94-2.87,6.3a27.86,27.86,0,0,1,3.76,6.46l6.9.6,1.54,11.36-6.48,2.43a28.48,28.48,0,0,1-1.91,7.22l4.45,5.31-6.94,9.12-6.31-2.87a28.36,28.36,0,0,1-6.45,3.76l-.61,6.9-11.36,1.54L149.22,284a27.64,27.64,0,0,1-7.23-1.91l-5.31,4.45-9.12-6.94,2.88-6.3a28.25,28.25,0,0,1-3.77-6.46l-6.9-.6-1.54-11.36,6.49-2.43a27.67,27.67,0,0,1,1.91-7.22l-4.45-5.31,6.94-9.12,6.3,2.87a28.43,28.43,0,0,1,6.46-3.76l.61-6.9,11.35-1.54,2.43,6.49Zm-4.66,15.77a12.29,12.29,0,1,0,13.83,10.53A12.29,12.29,0,0,0,151.61,243.71Z" style="fill:none"></path><path d="M151.61,243.71a9,9,0,0,1,3-.16,12.19,12.19,0,0,1,7.47,3.48,12.39,12.39,0,0,1,3.08,4.9,12.59,12.59,0,0,1,.38,6.63A12.58,12.58,0,0,1,162,265a12.55,12.55,0,0,1-14.81,2,12.52,12.52,0,0,1-5.13-5.24,12.53,12.53,0,0,1-1.4-6.49,12.4,12.4,0,0,1,1.67-5.54,12.27,12.27,0,0,1,6.27-5.35,9.3,9.3,0,0,1,3-.65,27.07,27.07,0,0,0-2.88.91,12.32,12.32,0,0,0-5.94,5.33,12,12,0,0,0-.12,11.49,11.48,11.48,0,0,0,2,2.78,11.33,11.33,0,0,0,2.86,2.16,11.95,11.95,0,0,0,14-1.9,11.26,11.26,0,0,0,2.18-2.85,11.42,11.42,0,0,0,1.22-3.21,12.15,12.15,0,0,0-.31-6.31,11.91,11.91,0,0,0-2.87-4.73,12.25,12.25,0,0,0-7.15-3.56A29.23,29.23,0,0,0,151.61,243.71Z" style="fill:#e0e0e0"></path><path d="M156.27,227.94a2,2,0,0,1-.18-.4c-.12-.3-.27-.7-.48-1.22q-.66-1.68-1.87-4.83l.12.07-11.35,1.61.15-.16c-.17,2.09-.37,4.41-.57,6.9l0,.12-.11.05a27.61,27.61,0,0,0-6.39,3.76l-.11.08-.13-.06L129,231l.31-.08-6.92,9.14v-.35l4.46,5.3.12.14-.07.16a28,28,0,0,0-1.88,7.15l0,.18-.17.07-6.49,2.43.21-.33c.48,3.56,1,7.41,1.55,11.35l-.3-.28,6.9.6.2,0,.08.19a28,28,0,0,0,3.73,6.37l.12.16-.08.19-2.87,6.31-.11-.42,9.12,6.94h-.43l5.31-4.46.16-.13.2.08a27.51,27.51,0,0,0,7.12,1.88h0c.13.1-.29-.22.29.23h0v0l0,.05,0,.11.08.2.15.41.3.82.61,1.62c.41,1.08.81,2.16,1.21,3.24l-.38-.23L163,288.58l-.3.32c.21-2.33.41-4.62.61-6.9l0-.21.19-.08a27.87,27.87,0,0,0,6.38-3.71l.17-.13.18.09,6.31,2.87-.41.11c2.37-3.12,4.69-6.15,7-9.12v.41l-4.45-5.32-.12-.14.07-.18a27.57,27.57,0,0,0,1.9-7.14l0-.19.17-.06,6.49-2.41-.19.31c-.53-4-1-7.77-1.52-11.36l.25.23-6.9-.62-.15,0-.06-.14a28.21,28.21,0,0,0-3.71-6.41l-.09-.11.06-.13c1-2.28,2-4.34,2.89-6.29l.07.25c-3.53-2.7-6.53-5-9.09-7h.19l-5.33,4.41-.06,0-.06,0a28.43,28.43,0,0,0-5.36-1.66l-1.37-.26-.45-.09a2.64,2.64,0,0,1,.46,0c.3,0,.77.09,1.38.2a26.94,26.94,0,0,1,5.43,1.57l-.12,0,5.28-4.49.1-.08.1.08,9.15,6.9.13.1-.07.15-2.85,6.32,0-.24a28.69,28.69,0,0,1,3.82,6.5l-.21-.16,6.9.59.21,0,0,.22c.49,3.59,1,7.36,1.56,11.35l0,.23-.22.09-6.48,2.43.2-.25a28.42,28.42,0,0,1-1.92,7.31l-.05-.32,4.46,5.3.16.2-.16.21-6.93,9.12-.16.22-.24-.11-6.31-2.87.35,0a28.86,28.86,0,0,1-6.53,3.81l.21-.29q-.3,3.42-.6,6.9l0,.28-.27,0-11.36,1.55-.28,0-.1-.27c-.4-1.07-.8-2.15-1.21-3.23l-.61-1.63-.3-.81-.15-.41-.08-.21,0-.1,0-.05v0h0l.28.22h0a28.47,28.47,0,0,1-7.31-1.93l.36-.06-5.31,4.45-.22.18-.22-.17-9.12-6.94-.22-.17.12-.25c1-2.18,2-4.33,2.88-6.3l0,.35a28.45,28.45,0,0,1-3.81-6.54l.28.21-6.89-.62-.27,0,0-.26-1.53-11.36,0-.25.23-.09,6.49-2.41-.19.25a28.53,28.53,0,0,1,1.94-7.3l0,.3L122,240.08l-.15-.17.14-.18,7-9.1.12-.16.18.08,6.3,2.89-.24,0a28.24,28.24,0,0,1,6.52-3.77l-.13.17c.23-2.48.45-4.8.64-6.89v-.15l.14,0,11.37-1.47h.09l0,.08c.75,2.1,1.34,3.71,1.74,4.83l.44,1.26A4.14,4.14,0,0,1,156.27,227.94Z" style="fill:#e0e0e0"></path><path d="M114.72,305.3a40,40,0,0,1,10.21,2.7l7.51-6.29,12.89,9.81-4.06,8.92a39.46,39.46,0,0,1,5.32,9.12l9.76.86,2.17,16.06-9.17,3.43a39.23,39.23,0,0,1-2.7,10.21l6.3,7.51-9.82,12.9-8.91-4.07a39.32,39.32,0,0,1-9.13,5.32l-.86,9.76-16.06,2.18-3.42-9.17a40.22,40.22,0,0,1-10.22-2.7L87,388.14l-12.89-9.82,4.06-8.91a40,40,0,0,1-5.32-9.13l-9.75-.86-2.18-16.05,9.17-3.43a39.41,39.41,0,0,1,2.7-10.22l-6.29-7.5,9.81-12.9,8.91,4.06a40.26,40.26,0,0,1,9.13-5.32l.86-9.75,16.06-2.18,3.43,9.17Zm-6.6,22.3a17.38,17.38,0,1,0,19.57,14.89A17.39,17.39,0,0,0,108.12,327.6Z" style="fill:#e0e0e0;fill-rule:evenodd"></path><path d="M478,96.45a27.51,27.51,0,0,1,7,1.85L490.1,94l8.83,6.72-2.78,6.1a27.19,27.19,0,0,1,3.64,6.25l6.68.59,1.49,11L501.68,127a26.7,26.7,0,0,1-1.85,7l4.31,5.14L497.42,148l-6.1-2.78a27.19,27.19,0,0,1-6.25,3.64l-.59,6.68-11,1.49-2.35-6.28a27.08,27.08,0,0,1-7-1.84l-5.14,4.3-8.83-6.72,2.78-6.1a27,27,0,0,1-3.64-6.25l-6.68-.59-1.49-11,6.28-2.35a26.7,26.7,0,0,1,1.85-7L445,108l6.72-8.83,6.1,2.78A27.19,27.19,0,0,1,464,98.34l.59-6.68,11-1.49L478,96.45Zm-4.52,15.27a11.9,11.9,0,1,0,13.4,10.19A11.9,11.9,0,0,0,473.45,111.72Z" style="fill:#ebebeb;fill-rule:evenodd"></path><path d="M210.62,319a32.22,32.22,0,0,1,8.11,2.14l6-5L234.92,324,231.7,331a31.9,31.9,0,0,1,4.22,7.25l7.75.68,1.72,12.75-7.28,2.72a31.4,31.4,0,0,1-2.14,8.11l5,6-7.79,10.23-7.08-3.22a31.62,31.62,0,0,1-7.24,4.22l-.68,7.74-12.75,1.73-2.72-7.28a31.4,31.4,0,0,1-8.11-2.14l-6,5L178.4,377l3.23-7.07a31.62,31.62,0,0,1-4.22-7.24l-7.74-.69-1.73-12.74,7.28-2.72a31.29,31.29,0,0,1,2.14-8.11l-5-6,7.79-10.24,7.08,3.23a31.66,31.66,0,0,1,7.24-4.23l.68-7.74,12.75-1.73,2.72,7.28Zm-5.23,17.7a13.8,13.8,0,1,0,15.53,11.82A13.8,13.8,0,0,0,205.39,336.72Z" style="fill:#f5f5f5;fill-rule:evenodd"></path></g><g id="freepik--Window--inject-5"><rect x="152.92" y="125.49" width="391.42" height="197.9" rx="10.52" style="fill:#fafafa"></rect><path d="M533.82,323.39l.75-.05a10.39,10.39,0,0,0,2.19-.4A10.61,10.61,0,0,0,540,321.3a10.35,10.35,0,0,0,3.2-3.88,9.72,9.72,0,0,0,.91-2.91,20.68,20.68,0,0,0,.13-3.39c0-2.38,0-5,0-7.82,0-5.65,0-12.17,0-19.51,0-29.37,0-71.86-.09-124.36q0-9.84,0-20.15a35.09,35.09,0,0,0-.18-5.14,10.33,10.33,0,0,0-2.12-4.62,10.29,10.29,0,0,0-6.64-3.73,19.39,19.39,0,0,0-2.65-.1l-44.67,0-98.57,0-225.84,0a10.39,10.39,0,0,0-6.72,2.49,10.15,10.15,0,0,0-3.44,6.25,26.36,26.36,0,0,0-.13,3.68v98.26q0,28.33,0,55.62v20.28a10.5,10.5,0,0,0,1.7,6.2,10.33,10.33,0,0,0,5,4c2,.84,4.25.61,6.44.65h13.1l184.46.06,124.35.08,33.81,0,8.79,0c2,0,3,0,3,0l-3,0-8.79,0-33.81.05-124.35.09-184.46.05h-13.1c-1.1,0-2.18,0-3.3,0a9.9,9.9,0,0,1-3.31-.66,10.76,10.76,0,0,1-5.24-4.15,11.07,11.07,0,0,1-1.79-6.47v-75.9q0-28.34,0-57.63V138.17a28.08,28.08,0,0,1,.13-3.76,10.66,10.66,0,0,1,3.62-6.56,10.87,10.87,0,0,1,7.06-2.62l225.84,0,98.57,0h44.67a18.88,18.88,0,0,1,2.7.11,10.77,10.77,0,0,1,2.62.69,11,11,0,0,1,4.28,3.18,10.81,10.81,0,0,1,2.2,4.8,13.7,13.7,0,0,1,.18,2.62v2.59q0,10.31,0,20.15c0,52.5-.06,95-.08,124.36,0,7.34,0,13.86,0,19.51q0,4.24,0,7.82a19.93,19.93,0,0,1-.15,3.41,9.49,9.49,0,0,1-.92,2.93,10.37,10.37,0,0,1-3.25,3.9,10.66,10.66,0,0,1-3.3,1.63,11,11,0,0,1-2.21.38Z" style="fill:#263238"></path><path d="M505.11,160.67a44.22,44.22,0,0,1,4.65-5,46.15,46.15,0,0,1,5-4.66,44.92,44.92,0,0,1-4.65,5A45.39,45.39,0,0,1,505.11,160.67Z" style="fill:#263238"></path><path d="M514.83,160.72a46.29,46.29,0,0,1-5.07-4.7,43.69,43.69,0,0,1-4.7-5.08,47.06,47.06,0,0,1,5.07,4.71A46.29,46.29,0,0,1,514.83,160.72Z" style="fill:#263238"></path><path d="M522.12,155.59a26.72,26.72,0,0,0-.48-3,12.22,12.22,0,0,0-4.44-6.58,12,12,0,0,0-11.32-1.68,12.06,12.06,0,0,0-5.53,4.16,11.86,11.86,0,0,0,0,14.09,11.75,11.75,0,0,0,5.53,4.16,12,12,0,0,0,11.32-1.67,12.24,12.24,0,0,0,4.44-6.59,27.24,27.24,0,0,0,.48-2.94,9.89,9.89,0,0,1-.06,1.72,9.09,9.09,0,0,1-.23,1.27,12.14,12.14,0,0,1-4.41,6.83,12.24,12.24,0,0,1-11.7,1.83,11.28,11.28,0,0,1-3.15-1.68,11.52,11.52,0,0,1-2.63-2.63,12.32,12.32,0,0,1,0-14.69,12.38,12.38,0,0,1,5.78-4.31,12.42,12.42,0,0,1,6.51-.51,12.22,12.22,0,0,1,5.19,2.35,12.09,12.09,0,0,1,4.41,6.82,9,9,0,0,1,.23,1.28,5.69,5.69,0,0,1,.07.94A5.82,5.82,0,0,1,522.12,155.59Z" style="fill:#263238"></path><path d="M195,289.65a2.42,2.42,0,0,1-2.42-2.41V282a2.42,2.42,0,1,1,4.83,0v5.26A2.41,2.41,0,0,1,195,289.65Zm0-9.09a1.43,1.43,0,0,0-1.42,1.42v5.26a1.42,1.42,0,0,0,2.83,0V282A1.42,1.42,0,0,0,195,280.56Z" style="fill:#263238"></path><path d="M195,292.15a5.51,5.51,0,0,1-5.51-5.5.5.5,0,0,1,.5-.5.5.5,0,0,1,.5.5,4.51,4.51,0,0,0,9,0,.5.5,0,0,1,1,0A5.51,5.51,0,0,1,195,292.15Z" style="fill:#263238"></path><path d="M195,295.2a.5.5,0,0,1-.5-.5v-3a.5.5,0,0,1,.5-.5.5.5,0,0,1,.5.5v3A.5.5,0,0,1,195,295.2Z" style="fill:#263238"></path><path d="M249.28,295H235a.5.5,0,0,1-.5-.5V280.23a.5.5,0,0,1,.5-.5h14.3a.5.5,0,0,1,.5.5v14.31A.5.5,0,0,1,249.28,295Zm-13.8-1h13.3V280.73h-13.3Z" style="fill:#263238"></path><path d="M247.35,292.07a.48.48,0,0,1-.39-.18l-2.84-3.53-2,2.44a.47.47,0,0,1-.35.18.45.45,0,0,1-.38-.13l-1.67-1.55c-1,1.12-2,2.28-2.16,2.5a.5.5,0,0,1-.94-.23c0-.24,0-.28,2.69-3.32a.46.46,0,0,1,.35-.16.45.45,0,0,1,.36.13l1.66,1.53,2-2.5a.51.51,0,0,1,.78,0l3.22,4a.49.49,0,0,1-.07.7A.45.45,0,0,1,247.35,292.07Z" style="fill:#263238"></path><path d="M241.35,287.39a1.56,1.56,0,1,1,1.56-1.56A1.56,1.56,0,0,1,241.35,287.39Zm0-2.12a.56.56,0,1,0,.56.56A.56.56,0,0,0,241.35,285.27Z" style="fill:#263238"></path><path d="M297.06,294.29H282.91a.5.5,0,0,1-.5-.5V283.26a.5.5,0,0,1,.5-.5H286l1.43-1.43a.5.5,0,0,1,.35-.14h4.31a.5.5,0,0,1,.35.14l1.43,1.43h3.21a.5.5,0,0,1,.5.5v10.53A.5.5,0,0,1,297.06,294.29Zm-13.65-1h13.15v-9.53h-2.92a.47.47,0,0,1-.35-.15l-1.43-1.42H288l-1.43,1.42a.47.47,0,0,1-.35.15h-2.78Z" style="fill:#263238"></path><path d="M290,292.24a3.65,3.65,0,1,1,3.64-3.64A3.66,3.66,0,0,1,290,292.24Zm0-6.29a2.65,2.65,0,1,0,2.64,2.65A2.65,2.65,0,0,0,290,286Z" style="fill:#263238"></path><path d="M333.63,287.36a2,2,0,1,1-2-2A2,2,0,0,1,333.63,287.36Z" style="fill:#263238"></path><path d="M339.44,287.36a2,2,0,1,1-2-2A2,2,0,0,1,339.44,287.36Z" style="fill:#263238"></path><path d="M345.24,287.36a2,2,0,1,1-2-2A2,2,0,0,1,345.24,287.36Z" style="fill:#263238"></path><path d="M516.25,260.16c0,.14-75.05.26-167.61.26S181,260.3,181,260.16s75-.26,167.64-.26S516.25,260,516.25,260.16Z" style="fill:#263238"></path><path d="M199.53,229.59,196,240.25h-1.6l-2.9-8.52-2.91,8.52h-1.63l-3.57-10.66h1.57l2.88,8.66,3-8.66h1.4l2.94,8.71,2.94-8.71Z" style="fill:#e0e0e0"></path><path d="M209.05,235.6v4.65h-1.46v-4.48c0-1.58-.79-2.36-2.18-2.36a2.4,2.4,0,0,0-2.56,2.68v4.16h-1.46V229h1.46v4.37a3.5,3.5,0,0,1,2.85-1.22C207.67,232.1,209.05,233.23,209.05,235.6Z" style="fill:#e0e0e0"></path><path d="M218.15,235.37v4.88h-1.38v-1.07a3,3,0,0,1-2.65,1.16c-1.83,0-3-1-3-2.38s.84-2.36,3.25-2.36h2.31v-.29c0-1.23-.71-1.95-2.16-1.95a4.09,4.09,0,0,0-2.56.87l-.61-1.09a5.39,5.39,0,0,1,3.34-1C216.9,232.1,218.15,233.17,218.15,235.37Zm-1.46,2.41v-1.13h-2.25c-1.45,0-1.86.57-1.86,1.25s.67,1.31,1.78,1.31A2.33,2.33,0,0,0,216.69,237.78Z" style="fill:#e0e0e0"></path><path d="M225.4,239.77a2.71,2.71,0,0,1-1.77.57,2.31,2.31,0,0,1-2.56-2.53v-4.43H219.7v-1.2h1.37v-1.77h1.46v1.77h2.32v1.2h-2.32v4.37a1.19,1.19,0,0,0,1.27,1.35,1.8,1.8,0,0,0,1.14-.38Z" style="fill:#e0e0e0"></path><path d="M231.27,229h1.86l-2.56,2H229.2Z" style="fill:#e0e0e0"></path><path d="M235.27,239.39l.61-1.15a5.25,5.25,0,0,0,2.83.83c1.36,0,1.92-.41,1.92-1.09,0-1.81-5.1-.25-5.1-3.46,0-1.45,1.3-2.42,3.37-2.42a5.84,5.84,0,0,1,2.94.73l-.63,1.16a4.23,4.23,0,0,0-2.33-.64c-1.28,0-1.9.47-1.9,1.11,0,1.9,5.12.35,5.12,3.49,0,1.46-1.34,2.39-3.49,2.39A5.79,5.79,0,0,1,235.27,239.39Z" style="fill:#e0e0e0"></path><path d="M247.27,236.21a4.2,4.2,0,1,1,4.2,4.13A4,4,0,0,1,247.27,236.21Zm6.91,0a2.72,2.72,0,1,0-5.44,0,2.72,2.72,0,1,0,5.44,0Z" style="fill:#e0e0e0"></path><path d="M265.34,235.6v4.65h-1.46v-4.48c0-1.58-.79-2.36-2.18-2.36a2.4,2.4,0,0,0-2.56,2.68v4.16h-1.46v-8.07h1.4v1.21A3.46,3.46,0,0,1,262,232.1C264,232.1,265.34,233.23,265.34,235.6Z" style="fill:#e0e0e0"></path><path d="M279.28,232.18l-3.91,8.87c-.72,1.71-1.65,2.24-2.88,2.24a3,3,0,0,1-2.07-.74l.62-1.1a2.08,2.08,0,0,0,1.45.59c.7,0,1.14-.32,1.54-1.24l.26-.57-3.57-8h1.53l2.81,6.45,2.79-6.45Z" style="fill:#e0e0e0"></path><path d="M279.67,236.21a4.2,4.2,0,1,1,4.21,4.13A4,4,0,0,1,279.67,236.21Zm6.92,0a2.72,2.72,0,1,0-2.71,2.85A2.65,2.65,0,0,0,286.59,236.21Z" style="fill:#e0e0e0"></path><path d="M297.61,232.18v8.07h-1.39V239a3.27,3.27,0,0,1-2.74,1.31,3.17,3.17,0,0,1-3.47-3.52v-4.64h1.46v4.47c0,1.59.79,2.38,2.18,2.38a2.38,2.38,0,0,0,2.5-2.68v-4.17Z" style="fill:#e0e0e0"></path><path d="M304.73,232.1v1.42a1.94,1.94,0,0,0-.33,0,2.41,2.41,0,0,0-2.55,2.73v4h-1.46v-8.07h1.4v1.35A3.09,3.09,0,0,1,304.73,232.1Z" style="fill:#e0e0e0"></path><path d="M324.13,235.6v4.65h-1.47v-4.48c0-1.58-.76-2.36-2.08-2.36s-2.42.93-2.42,2.68v4.16h-1.47v-4.48c0-1.58-.76-2.36-2.08-2.36s-2.42.93-2.42,2.68v4.16h-1.46v-8.07h1.4v1.2a3.25,3.25,0,0,1,2.78-1.28,3,3,0,0,1,2.8,1.49,3.65,3.65,0,0,1,3.11-1.49C322.79,232.1,324.13,233.23,324.13,235.6Z" style="fill:#e0e0e0"></path><path d="M326.56,229.68a1,1,0,0,1,1-1,1,1,0,1,1-1,1Zm.25,2.5h1.47v8.07h-1.47Z" style="fill:#e0e0e0"></path><path d="M338.72,235.6v4.65h-1.46v-4.48c0-1.58-.79-2.36-2.18-2.36a2.4,2.4,0,0,0-2.56,2.68v4.16h-1.46v-8.07h1.4v1.21a3.47,3.47,0,0,1,2.91-1.29C337.33,232.1,338.72,233.23,338.72,235.6Z" style="fill:#e0e0e0"></path><path d="M349.09,229v11.3h-1.4V239a3.44,3.44,0,0,1-2.88,1.37,4.12,4.12,0,0,1,0-8.24,3.44,3.44,0,0,1,2.81,1.29V229Zm-1.45,7.26a2.72,2.72,0,1,0-2.71,2.85A2.65,2.65,0,0,0,347.64,236.21Z" style="fill:#e0e0e0"></path><path d="M356.62,232.4c0-1-.81-1.64-2.18-1.64a3.24,3.24,0,0,0-2.72,1.2l-1.12-.79a4.75,4.75,0,0,1,3.95-1.7c2.19,0,3.61,1,3.61,2.71,0,2.54-2.7,2.71-2.7,4.7h-1.52C353.94,234.49,356.62,234.16,356.62,232.4Zm-2.89,7a1,1,0,1,1,1,1A1,1,0,0,1,353.73,239.36Z" style="fill:#e0e0e0"></path><path d="M252,182.54c0,1.6-1.16,2.57-3.08,2.57h-1.83v2.24h-1.05V180H249C250.87,180,252,180.93,252,182.54Zm-1.05,0c0-1.06-.71-1.66-2.06-1.66h-1.8v3.31h1.8C250.27,184.19,251,183.59,251,182.54Z" style="fill:#263238"></path><path d="M258.76,181.76v5.59h-1v-.84a2.28,2.28,0,0,1-1.9.91,2.2,2.2,0,0,1-2.41-2.44v-3.22h1v3.1c0,1.1.55,1.65,1.51,1.65a1.65,1.65,0,0,0,1.74-1.86v-2.89Z" style="fill:#263238"></path><path d="M266.49,184.55a2.73,2.73,0,0,1-2.83,2.87,2.38,2.38,0,0,1-2-1v.89h-1v-7.83h1v3.08a2.38,2.38,0,0,1,2-.9A2.71,2.71,0,0,1,266.49,184.55Zm-1,0a1.88,1.88,0,1,0-1.88,2A1.84,1.84,0,0,0,265.46,184.55Z" style="fill:#263238"></path><path d="M267.89,179.52h1v7.83h-1Z" style="fill:#263238"></path><path d="M270.66,180a.67.67,0,0,1,.69-.66.65.65,0,0,1,.68.64.69.69,0,0,1-1.37,0Zm.18,1.74h1v5.59h-1Z" style="fill:#263238"></path><path d="M273.27,184.55a2.8,2.8,0,0,1,3-2.85,2.49,2.49,0,0,1,2.28,1.2l-.77.49a1.74,1.74,0,0,0-1.52-.8,2,2,0,0,0,0,3.94,1.77,1.77,0,0,0,1.52-.8l.77.48a2.52,2.52,0,0,1-2.28,1.21A2.81,2.81,0,0,1,273.27,184.55Z" style="fill:#263238"></path><path d="M289.09,182.82l2.52,2.43a.45.45,0,0,0,.61,0l2.55-2.47a.46.46,0,0,0-.35-.77h-5A.47.47,0,0,0,289.09,182.82Z" style="fill:#263238"></path><path d="M255.86,156.05v10.66h-1.63l-5.88-7.22v7.22h-2V156.05H248l5.88,7.22v-7.22Z" style="fill:#263238"></path><path d="M258.28,156.1a1.15,1.15,0,0,1,1.21-1.14,1.13,1.13,0,0,1,1.22,1.09,1.17,1.17,0,0,1-1.22,1.19A1.15,1.15,0,0,1,258.28,156.1Zm.25,2.48h1.91v8.13h-1.91Z" style="fill:#263238"></path><path d="M262.26,162.65a4.12,4.12,0,0,1,4.4-4.16,3.66,3.66,0,0,1,3.48,1.89l-1.47.85a2.28,2.28,0,0,0-2-1.13,2.55,2.55,0,0,0,0,5.09,2.28,2.28,0,0,0,2-1.13l1.47.85a3.71,3.71,0,0,1-3.48,1.91A4.13,4.13,0,0,1,262.26,162.65Z" style="fill:#263238"></path><path d="M275,163.22l-1.42,1.34v2.15h-1.9v-11.3h1.9v6.82l3.95-3.65h2.28L276.44,162l3.71,4.72h-2.31Z" style="fill:#263238"></path><path d="M289.32,162.05v4.66h-1.91V162.3c0-1.45-.71-2.15-1.93-2.15a2.16,2.16,0,0,0-2.27,2.45v4.11h-1.9v-8.13h1.81v1a3.51,3.51,0,0,1,2.8-1.14C287.87,158.49,289.32,159.6,289.32,162.05Z" style="fill:#263238"></path><path d="M298.54,162v4.76h-1.8v-1a2.88,2.88,0,0,1-2.56,1.1c-1.85,0-3-1-3-2.44s.92-2.42,3.38-2.42h2.11v-.12c0-1.11-.67-1.77-2-1.77a4.06,4.06,0,0,0-2.47.81l-.74-1.39a5.71,5.71,0,0,1,3.44-1C297.18,158.49,298.54,159.6,298.54,162Zm-1.9,2.22v-.95h-2c-1.29,0-1.64.49-1.64,1.09s.58,1.12,1.55,1.12A2.07,2.07,0,0,0,296.64,164.17Z" style="fill:#263238"></path><path d="M314.57,162.05v4.66h-1.9V162.3c0-1.45-.67-2.15-1.83-2.15s-2.12.82-2.12,2.43v4.13h-1.9V162.3c0-1.45-.67-2.15-1.83-2.15s-2.11.82-2.11,2.43v4.13H301v-8.13h1.81v1a3.36,3.36,0,0,1,2.67-1.13,3,3,0,0,1,2.74,1.35,3.81,3.81,0,0,1,3.05-1.35C313.2,158.49,314.57,159.6,314.57,162.05Z" style="fill:#263238"></path><path d="M324.69,163.25h-6.38a2.46,2.46,0,0,0,2.63,1.95,2.92,2.92,0,0,0,2.21-.88l1,1.17a4.11,4.11,0,0,1-3.27,1.33c-2.73,0-4.49-1.75-4.49-4.17a4,4,0,0,1,4.2-4.16,4,4,0,0,1,4.11,4.2C324.72,162.84,324.7,163.07,324.69,163.25Zm-6.4-1.26h4.62a2.21,2.21,0,0,0-2.3-2A2.26,2.26,0,0,0,318.29,162Z" style="fill:#263238"></path><path d="M492.38,302.76H428.07a14.67,14.67,0,0,1-14.66-14.66h0a14.66,14.66,0,0,1,14.66-14.66h64.31A14.66,14.66,0,0,1,507,288.1h0A14.66,14.66,0,0,1,492.38,302.76Z" style="fill:#9D9D9D"></path><path d="M439.2,288v-4.1h1V288c0,1.6.74,2.32,2,2.32s2-.72,2-2.32v-4.06h1V288c0,2.09-1.15,3.2-3.05,3.2S439.2,290.1,439.2,288Z" style="fill:#fff"></path><path d="M453.25,286.42c0,1.57-1.13,2.52-3,2.52h-1.78v2.19h-1v-7.22h2.81C452.12,283.91,453.25,284.85,453.25,286.42Zm-1,0c0-1-.69-1.62-2-1.62h-1.75V288h1.75C451.53,288,452.22,287.45,452.22,286.42Z" style="fill:#fff"></path><path d="M454.77,283.91h3.05a3.62,3.62,0,1,1,0,7.22h-3.05Zm3,6.32a2.72,2.72,0,1,0,0-5.43H455.8v5.43Z" style="fill:#fff"></path><path d="M467.79,289.32H464l-.8,1.81H462.1l3.27-7.22h1l3.28,7.22h-1.08Zm-.36-.82L465.87,285l-1.55,3.54Z" style="fill:#fff"></path><path d="M471.82,284.8h-2.48v-.89h6v.89h-2.48v6.33h-1Z" style="fill:#fff"></path><path d="M481.68,290.23v.9h-5.24v-7.22h5.1v.89h-4.07V287h3.63v.88h-3.63v2.33Z" style="fill:#fff"></path></g></svg>